<svg width="200" height="200" viewBox="0 0 200 200" fill="none" xmlns="http://www.w3.org/2000/svg">
<g clip-path="url(#clip0_4_491)">
<rect width="200" height="200" fill="#3B82F6"/>
<path d="M79.3333 116V124C79.3333 134.667 64 139.333 64 139.333C64 139.333 81.6667 152.667 100 152.667C118.333 152.667 136 139.333 136 139.333C136 139.333 120.546 134.667 120.667 124C120.787 113.333 120.707 107.067 120.787 88.7919C130.342 76.4072 129.729 68.0952 124.504 62.2499C107 42.6666 59.3333 49.3332 59.3333 49.3332C59.3333 49.3332 54.8853 97.3286 65 111.333C69.3333 117.333 79.3333 116 79.3333 116Z" fill="url(#paint0_linear_4_491)"/>
<path style="mix-blend-mode:multiply" opacity="0.6" d="M79.3333 116C94 114.333 102.667 108 102.667 108C97.1949 116.095 88.8562 121.813 79.3333 124V116Z" fill="url(#paint1_linear_4_491)"/>
<path d="M30 159.539C23.6533 172.443 20 202.205 20 202.205H180C180 202.205 176.345 172.44 170 159.539C163.655 146.637 126.6 134.671 126.6 134.671C119.458 149.333 80.2613 149.333 73.4193 134.667C73.4193 134.667 36.3467 146.634 30 159.539Z" fill="white"/>
<path d="M102.667 185.333C102.667 184.806 102.51 184.29 102.217 183.852C101.924 183.413 101.508 183.071 101.02 182.87C100.533 182.668 99.997 182.615 99.4797 182.718C98.9624 182.821 98.4873 183.075 98.1143 183.448C97.7414 183.821 97.4874 184.296 97.3845 184.813C97.2816 185.33 97.3345 185.867 97.5363 186.354C97.7381 186.841 98.0799 187.258 98.5184 187.551C98.957 187.844 99.4725 188 100 188C100.707 188 101.385 187.719 101.886 187.219C102.386 186.719 102.667 186.041 102.667 185.333ZM102.667 172C102.667 171.473 102.51 170.957 102.217 170.518C101.924 170.08 101.508 169.738 101.02 169.536C100.533 169.334 99.997 169.282 99.4797 169.385C98.9624 169.487 98.4873 169.741 98.1143 170.114C97.7414 170.487 97.4874 170.962 97.3845 171.48C97.2816 171.997 97.3345 172.533 97.5363 173.02C97.7381 173.508 98.0799 173.924 98.5184 174.217C98.957 174.51 99.4725 174.667 100 174.667C100.707 174.667 101.385 174.386 101.886 173.886C102.386 173.386 102.667 172.707 102.667 172ZM102.667 158.667C102.667 158.139 102.51 157.624 102.217 157.185C101.924 156.747 101.508 156.405 101.02 156.203C100.533 156.001 99.997 155.948 99.4797 156.051C98.9624 156.154 98.4873 156.408 98.1143 156.781C97.7414 157.154 97.4874 157.629 97.3845 158.146C97.2816 158.664 97.3345 159.2 97.5363 159.687C97.7381 160.174 98.0799 160.591 98.5184 160.884C98.957 161.177 99.4725 161.333 100 161.333C100.707 161.333 101.385 161.052 101.886 160.552C102.386 160.052 102.667 159.374 102.667 158.667Z" fill="white"/>
<path d="M112.563 68.8059C114.683 66.9852 117.259 65.7592 120.901 67.6512C129.533 72.1332 123 89.3332 115.333 89.3332C113.333 89.3332 112.339 95.6146 121.243 99.9999C121.243 92.9999 131.91 75.6666 132.843 59.8852C143.577 55.8886 140.91 39.8973 133.541 39.8973C134.717 25.2386 111.243 17.6666 102.154 26.0793C92.91 14.9999 69.5767 20.6666 68.168 30.2786C52.1233 21.7139 41.5767 46.3332 56.6 55.8906C62.782 59.8239 77.2433 61.3206 98.1187 61.3206C101.27 61.3206 103.035 62.1032 102.154 65.9999C100.448 73.5506 104.409 78.3066 112.563 68.8059Z" fill="white"/>
</g>
<defs>
<linearGradient id="paint0_linear_4_491" x1="97.1797" y1="48.2394" x2="97.1797" y2="152.667" gradientUnits="userSpaceOnUse">
<stop stop-color="#E6864E"/>
<stop offset="1" stop-color="#EB965E"/>
</linearGradient>
<linearGradient id="paint1_linear_4_491" x1="83.7433" y1="111.008" x2="87.83" y2="126.483" gradientUnits="userSpaceOnUse">
<stop stop-color="#E07A3F"/>
<stop offset="1" stop-color="#EB9154"/>
</linearGradient>
<clipPath id="clip0_4_491">
<rect width="200" height="200" fill="white"/>
</clipPath>
</defs>
</svg>
